<svg class="svg-icon" style="width: 1em; height: 1em;vertical-align: middle;fill: currentColor;overflow: hidden;" viewBox="0 0 1024 1024" version="1.1" xmlns="http://www.w3.org/2000/svg"><path d="M701 422c0-36.2-37-64.6-84.2-64.6s-84.2 28.4-84.2 64.6c0 36.2 37 64.6 84.2 64.6S701 458.2 701 422z m-127.3 0c0-11 18.4-23.4 43-23.4s43.1 12.4 43.1 23.4c0 11.1-18.4 23.4-43.1 23.4-24.6 0-43-12.3-43-23.4zM427.8 639.3c0 36.2 37 64.6 84.2 64.6s84.2-28.4 84.2-64.6c0-36.2-37-64.6-84.2-64.6-47.2 0.1-84.2 28.4-84.2 64.6z m127.3 0c0 11.1-18.4 23.4-43.1 23.4-24.6 0-43-12.4-43-23.4 0-11 18.4-23.4 43-23.4 24.7 0 43.1 12.4 43.1 23.4zM410.5 359c-49 0-87.4 27.7-87.4 63.1 0 35.4 38.4 63.1 87.4 63.1 49 0 87.4-27.7 87.4-63.1 0-35.4-38.4-63.1-87.4-63.1z m0 84.9c-27.8 0-46.3-13.2-46.3-21.9s18.5-21.9 46.3-21.9c27.8 0 46.2 13.2 46.2 21.9s-18.4 21.9-46.2 21.9z" fill="#1E1E1E" /><path d="M270.6 823.8c28 24.3 62.2 42.9 101.5 55.2 40.3 12.6 87.4 19 140 19 51.9 0 98.7-6.7 139-19.8 39.2-12.8 73.4-32.1 101.7-57.3 12.3-11 13.8-29.7 3.4-42.5l-67.8-83.5c-10.7-13.2-30.2-15.3-43.4-4.5-13.2 10.7-15.3 30.2-4.5 43.4l47.8 58.9C644 821.5 584.9 836.2 512 836.2c-74.8 0-133.1-13.5-177-41.2l48.9-60.1c10.8-13.2 8.8-32.7-4.5-43.4-13.2-10.8-32.7-8.8-43.4 4.5l-69.1 85c-10.6 12.9-8.9 31.8 3.7 42.8zM190.6 510.9l94.8 18.3c2 0.4 3.9 0.6 5.9 0.6 14.5 0 27.4-10.3 30.3-25 3.2-16.7-7.7-32.9-24.5-36.2l-67.2-12.9C251.1 294.3 361.8 187.8 512 187.8c149.8 0 260.4 106 282 266.7l-65.6 11.7c-16.8 3-28 19-25 35.8 3 16.8 19 28 35.8 25l93.7-16.8c15.5-2.8 26.4-16.8 25.4-32.5-3.3-48.4-13.7-94.2-30.7-136.3-17.3-42.7-41-80.3-70.5-112-30.6-32.8-66.6-58.3-107.2-75.8-42.2-18.3-88.7-27.5-138-27.5-49.4 0-95.8 9.3-138.1 27.6-40.6 17.6-76.7 43.2-107.3 76-29.5 31.7-53.2 69.5-70.5 112.2-17 42.2-27.3 88.1-30.5 136.6-0.9 15.6 9.8 29.5 25.1 32.4zM821 726.4c18.9-41.6 31-91.8 35.9-149 1.5-17-11.1-31.9-28.1-33.4s-31.9 11.1-33.4 28.1c-4.3 50.2-14.6 93.6-30.6 128.8-7.1 15.5-0.2 33.8 15.3 40.9 4.1 1.9 8.5 2.8 12.7 2.8 11.8-0.1 23-6.8 28.2-18.2zM228.4 572.3c-1.3-17-16.1-29.7-33.1-28.4-17 1.3-29.7 16.1-28.4 33.1 4.7 61.6 16.6 112.4 36.3 155.2 5.2 11.3 16.4 18 28.1 18 4.3 0 8.7-0.9 12.9-2.8 15.5-7.1 22.3-25.4 15.2-40.9-16.8-36.1-26.9-80-31-134.2z" fill="#1E1E1E" /></svg>