<svg class="svg-icon" style="width: 1em;height: 1em;vertical-align: middle;fill: currentColor;overflow: hidden;" viewBox="0 0 1024 1024" version="1.1" xmlns="http://www.w3.org/2000/svg"><path d="M544 128c213.504 8.736 384 184.448 384 400C928 748.928 748.928 928 528 928a398.4 398.4 0 0 1-178.624-42.016 16 16 0 1 1 14.304-28.608A365.856 365.856 0 0 0 512 895.648v-128.16c-117.248-7.584-211.776-99.84-222.912-216.384l-0.576-7.072H160.352c2.208 51.456 15.04 101.12 37.44 146.592a16 16 0 1 1-28.704 14.176A397.92 397.92 0 0 1 128.32 544H128v-32C136.512 303.808 303.808 136.512 512 128.32V128h32z m7.104 638.912l-7.072 0.576v128.16c190.496-8.16 343.456-161.12 351.616-351.616h-128.16v-0.544a240.064 240.064 0 0 1-216.384 223.424zM528 320a208 208 0 1 0 0 416 208 208 0 0 0 0-416z m0 128a80 80 0 1 1 0 160 80 80 0 0 1 0-160z m16-287.68v128.192l7.104 0.576a240.064 240.064 0 0 1 215.808 215.808l0.576 7.104h128.16c-8.128-190.496-161.12-343.488-351.616-351.68zM160.32 512h128.192l0.576-7.104a240.064 240.064 0 0 1 223.2-216.384H512V160.352C321.504 168.48 168.48 321.504 160.32 512z"  /></svg>