<svg class="svg-icon" style="width: 1em;height: 1em;vertical-align: middle;fill: currentColor;overflow: hidden;" viewBox="0 0 1024 1024" version="1.1" xmlns="http://www.w3.org/2000/svg"><path d="M554.666667 938.666667V85.333333h42.666666V0h-170.666666v85.333333h42.666666v853.333334h-42.666666v85.333333h170.666666v-85.333333h-42.666666zM192 789.333333v-85.333333H85.333333v85.333333h106.666667z m85.333333 0h106.666667v85.333334H0V149.333333h384v85.333334h-106.666667v85.333333h106.666667v85.333333H85.333333v213.333334h298.666667v85.333333h-106.666667v85.333333z m554.666667 0h106.666667v-85.333333h-106.666667v85.333333z m-85.333333 0v-85.333333h-106.666667v-85.333333h298.666667V405.333333H640v-85.333333h106.666667v-85.333333h-106.666667V149.333333h384v725.333334H640v-85.333334h106.666667zM192 234.666667H85.333333v85.333333h106.666667v-85.333333z m640 0v85.333333h106.666667v-85.333333h-106.666667z"  /></svg>